<svg width="1440" height="356" viewBox="0 0 1440 356" fill="none" xmlns="http://www.w3.org/2000/svg">
<g clip-path="url(#clip0_1019_1323)">
<rect width="1440" height="356" fill="#EEF8F7"/>
<g opacity="0.05">
<path d="M501.031 485.994H499.095L499.076 -66.5692L1661.83 -677H1665.7L501.005 -65.5516L501.031 485.994Z" fill="url(#paint0_linear_1019_1323)"/>
<path d="M1417.48 485.994L1700.54 337.392L1701.51 338.913L1421.35 485.994H1417.48Z" fill="url(#paint1_linear_1019_1323)"/>
<path d="M1355.89 485.994L1700.54 305.058L1701.5 306.579L1359.76 485.994H1355.89Z" fill="url(#paint2_linear_1019_1323)"/>
<path d="M1294.3 485.994L1700.54 272.724L1701.5 274.244L1298.16 485.994H1294.3Z" fill="url(#paint3_linear_1019_1323)"/>
<path d="M1232.71 485.994L1700.54 240.389L1701.5 241.916L1236.57 485.994H1232.71Z" fill="url(#paint4_linear_1019_1323)"/>
<path d="M1171.12 485.993L1700.54 208.054L1701.5 209.58L1174.98 485.993H1171.12Z" fill="url(#paint5_linear_1019_1323)"/>
<path d="M1109.52 485.994L1700.53 175.72L1701.5 177.247L1113.39 485.994H1109.52Z" fill="url(#paint6_linear_1019_1323)"/>
<path d="M1047.93 485.994L1700.53 143.391L1701.5 144.912L1051.8 485.994H1047.93Z" fill="url(#paint7_linear_1019_1323)"/>
<path d="M986.336 485.994L1700.53 111.057L1701.5 112.577L990.201 485.994H986.336Z" fill="url(#paint8_linear_1019_1323)"/>
<path d="M924.748 485.994L1700.53 78.7222L1701.5 80.2427L928.613 485.994H924.748Z" fill="url(#paint9_linear_1019_1323)"/>
<path d="M863.152 485.994L1700.53 46.3877L1701.5 47.9083L867.017 485.994H863.152Z" fill="url(#paint10_linear_1019_1323)"/>
<path d="M801.562 485.994L1700.53 14.0532L1701.5 15.5737L805.428 485.994H801.562Z" fill="url(#paint11_linear_1019_1323)"/>
<path d="M739.973 485.994L1700.53 -18.2812L1701.49 -16.7607L743.838 485.994H739.973Z" fill="url(#paint12_linear_1019_1323)"/>
<path d="M678.379 485.994L1700.53 -50.6157L1701.49 -49.0951L682.244 485.994H678.379Z" fill="url(#paint13_linear_1019_1323)"/>
<path d="M616.789 485.994L1700.53 -82.9497L1701.49 -81.4292L620.654 485.994H616.789Z" fill="url(#paint14_linear_1019_1323)"/>
<path d="M555.191 485.994L1700.52 -115.284L1701.49 -113.764L559.056 485.994H555.191Z" fill="url(#paint15_linear_1019_1323)"/>
<path d="M1700.51 -147.693L499.598 482.823L500.562 484.343L1701.48 -146.174L1700.51 -147.693Z" fill="url(#paint16_linear_1019_1323)"/>
<path d="M1700.52 -180.029L499.602 450.487L500.569 452.012L1701.49 -178.504L1700.52 -180.029Z" fill="url(#paint17_linear_1019_1323)"/>
<path d="M1700.51 -212.356L499.598 418.158L500.562 419.677L1701.47 -210.836L1700.51 -212.356Z" fill="url(#paint18_linear_1019_1323)"/>
<path d="M1700.51 -244.692L499.594 385.821L500.558 387.341L1701.47 -243.173L1700.51 -244.692Z" fill="url(#paint19_linear_1019_1323)"/>
<path d="M1700.5 -277.025L499.586 353.489L500.551 355.008L1701.46 -275.505L1700.5 -277.025Z" fill="url(#paint20_linear_1019_1323)"/>
<path d="M1700.5 -309.361L499.588 321.152L500.553 322.672L1701.46 -307.842L1700.5 -309.361Z" fill="url(#paint21_linear_1019_1323)"/>
<path d="M1700.5 -341.691L499.586 288.822L500.554 290.347L1701.47 -340.167L1700.5 -341.691Z" fill="url(#paint22_linear_1019_1323)"/>
<path d="M1700.49 -374.027L499.582 256.486L500.547 258.006L1701.46 -372.508L1700.49 -374.027Z" fill="url(#paint23_linear_1019_1323)"/>
<path d="M1700.5 -406.366L499.58 224.15L500.545 225.67L1701.46 -404.846L1700.5 -406.366Z" fill="url(#paint24_linear_1019_1323)"/>
<path d="M1700.49 -438.699L499.582 191.814L500.547 193.334L1701.46 -437.179L1700.49 -438.699Z" fill="url(#paint25_linear_1019_1323)"/>
<path d="M1700.49 -471.026L499.574 159.487L500.539 161.007L1701.45 -469.507L1700.49 -471.026Z" fill="url(#paint26_linear_1019_1323)"/>
<path d="M1700.49 -503.364L499.57 127.152L500.538 128.676L1701.46 -501.84L1700.49 -503.364Z" fill="url(#paint27_linear_1019_1323)"/>
<path d="M1700.49 -535.695L499.57 94.8208L500.535 96.3402L1701.45 -534.176L1700.49 -535.695Z" fill="url(#paint28_linear_1019_1323)"/>
<path d="M1700.49 -568.025L499.574 62.4907L500.539 64.0101L1701.46 -566.506L1700.49 -568.025Z" fill="url(#paint29_linear_1019_1323)"/>
<path d="M1700.48 -600.359L499.564 30.1572L500.529 31.6766L1701.45 -598.84L1700.48 -600.359Z" fill="url(#paint30_linear_1019_1323)"/>
<path d="M528.319 -80.3945H526.383V485.994H528.319V-80.3945Z" fill="url(#paint31_linear_1019_1323)"/>
<path d="M555.612 -94.7227H553.676V485.994H555.612V-94.7227Z" fill="url(#paint32_linear_1019_1323)"/>
<path d="M582.904 -109.05H580.969V485.994H582.904V-109.05Z" fill="url(#paint33_linear_1019_1323)"/>
<path d="M610.197 -123.378H608.262V485.994H610.197V-123.378Z" fill="url(#paint34_linear_1019_1323)"/>
<path d="M637.496 -137.706H635.561V485.994H637.496V-137.706Z" fill="url(#paint35_linear_1019_1323)"/>
<path d="M664.789 -152.034H662.854V485.994H664.789V-152.034Z" fill="url(#paint36_linear_1019_1323)"/>
<path d="M692.082 -166.368H690.146V485.994H692.082V-166.368Z" fill="url(#paint37_linear_1019_1323)"/>
<path d="M719.375 -180.696H717.439V485.994H719.375V-180.696Z" fill="url(#paint38_linear_1019_1323)"/>
<path d="M746.668 -195.024H744.732V485.994H746.668V-195.024Z" fill="url(#paint39_linear_1019_1323)"/>
<path d="M773.967 -209.352H772.031V485.994H773.967V-209.352Z" fill="url(#paint40_linear_1019_1323)"/>
<path d="M801.26 -223.681H799.324V485.993H801.26V-223.681Z" fill="url(#paint41_linear_1019_1323)"/>
<path d="M828.553 -238.008H826.617V485.994H828.553V-238.008Z" fill="url(#paint42_linear_1019_1323)"/>
<path d="M855.846 -252.342H853.91V485.994H855.846V-252.342Z" fill="url(#paint43_linear_1019_1323)"/>
<path d="M883.145 -266.67H881.209V485.994H883.145V-266.67Z" fill="url(#paint44_linear_1019_1323)"/>
<path d="M910.438 -280.998H908.502V485.994H910.438V-280.998Z" fill="url(#paint45_linear_1019_1323)"/>
<path d="M937.731 -295.326H935.795V485.994H937.731V-295.326Z" fill="url(#paint46_linear_1019_1323)"/>
<path d="M965.024 -309.654H963.088V485.994H965.024V-309.654Z" fill="url(#paint47_linear_1019_1323)"/>
<path d="M992.322 -323.981H990.387V485.994H992.322V-323.981Z" fill="url(#paint48_linear_1019_1323)"/>
<path d="M1019.62 -338.316H1017.68V485.994H1019.62V-338.316Z" fill="url(#paint49_linear_1019_1323)"/>
<path d="M1046.91 -352.644H1044.97V485.994H1046.91V-352.644Z" fill="url(#paint50_linear_1019_1323)"/>
<path d="M1074.2 -366.972H1072.27V485.994H1074.2V-366.972Z" fill="url(#paint51_linear_1019_1323)"/>
<path d="M1101.49 -381.3H1099.56V485.994H1101.49V-381.3Z" fill="url(#paint52_linear_1019_1323)"/>
<path d="M1128.8 -395.627H1126.86V485.994H1128.8V-395.627Z" fill="url(#paint53_linear_1019_1323)"/>
<path d="M1156.09 -409.961H1154.15V485.994H1156.09V-409.961Z" fill="url(#paint54_linear_1019_1323)"/>
<path d="M1183.38 -424.289H1181.45V485.994H1183.38V-424.289Z" fill="url(#paint55_linear_1019_1323)"/>
<path d="M1210.67 -438.617H1208.74V485.994H1210.67V-438.617Z" fill="url(#paint56_linear_1019_1323)"/>
<path d="M1237.97 -452.945H1236.04V485.994H1237.97V-452.945Z" fill="url(#paint57_linear_1019_1323)"/>
<path d="M1265.27 -467.273H1263.33V485.994H1265.27V-467.273Z" fill="url(#paint58_linear_1019_1323)"/>
<path d="M1292.56 -481.602H1290.62V485.994H1292.56V-481.602Z" fill="url(#paint59_linear_1019_1323)"/>
<path d="M1319.85 -495.935H1317.92V485.994H1319.85V-495.935Z" fill="url(#paint60_linear_1019_1323)"/>
<path d="M1347.14 -510.257H1345.21V486H1347.14V-510.257Z" fill="url(#paint61_linear_1019_1323)"/>
<path d="M1374.44 -524.591H1372.51V485.994H1374.44V-524.591Z" fill="url(#paint62_linear_1019_1323)"/>
<path d="M1401.74 -538.919H1399.8V485.994H1401.74V-538.919Z" fill="url(#paint63_linear_1019_1323)"/>
<path d="M1429.03 -553.247H1427.09V485.994H1429.03V-553.247Z" fill="url(#paint64_linear_1019_1323)"/>
<path d="M499.05 485.994L499.076 -65.5514L-213.396 -439.588V-441.623L500.523 -66.8204L501.005 -66.5689L500.986 485.994H499.05Z" fill="url(#paint65_linear_1019_1323)"/>
<path d="M71.4689 485.993L-213.396 336.444V334.415L75.3339 485.993H71.4689Z" fill="url(#paint66_linear_1019_1323)"/>
<path d="M133.065 485.994L-213.396 304.111V302.082L136.93 485.994H133.065Z" fill="url(#paint67_linear_1019_1323)"/>
<path d="M194.654 485.994L-213.396 271.776V269.747L198.519 485.994H194.654Z" fill="url(#paint68_linear_1019_1323)"/>
<path d="M256.243 485.994L-213.396 239.441V237.412L260.114 485.994H256.243Z" fill="url(#paint69_linear_1019_1323)"/>
<path d="M317.839 485.994L-213.396 207.107V205.078L321.704 485.994H317.839Z" fill="url(#paint70_linear_1019_1323)"/>
<path d="M379.434 485.994L-213.396 174.767V172.738L383.299 485.994H379.434Z" fill="url(#paint71_linear_1019_1323)"/>
<path d="M441.024 485.994L-213.396 142.433V140.403L444.889 485.994H441.024Z" fill="url(#paint72_linear_1019_1323)"/>
<path d="M-213.396 108.069L500.503 482.854L499.532 484.38L-213.396 110.098V108.069Z" fill="url(#paint73_linear_1019_1323)"/>
<path d="M-213.396 75.7344L500.503 450.519L499.539 452.046L-213.396 77.7637V75.7344Z" fill="url(#paint74_linear_1019_1323)"/>
<path d="M-213.396 43.3999L500.503 418.191L499.539 419.711L-213.396 45.4293V43.3999Z" fill="url(#paint75_linear_1019_1323)"/>
<path d="M-213.396 11.0654L500.503 385.856L499.539 387.377L-213.396 13.0947V11.0654Z" fill="url(#paint76_linear_1019_1323)"/>
<path d="M-213.396 -21.269L500.51 353.522L499.539 355.042L-213.396 -19.2397V-21.269Z" fill="url(#paint77_linear_1019_1323)"/>
<path d="M-213.396 -53.6035L500.51 321.187L499.545 322.708L-213.396 -51.5742V-53.6035Z" fill="url(#paint78_linear_1019_1323)"/>
<path d="M-213.396 -85.9385L500.51 288.853L499.545 290.373L-213.396 -83.9091V-85.9385Z" fill="url(#paint79_linear_1019_1323)"/>
<path d="M-213.396 -118.272L500.51 256.518L499.545 258.039L-213.396 -116.243V-118.272Z" fill="url(#paint80_linear_1019_1323)"/>
<path d="M-213.396 -150.607L500.51 224.184L499.545 225.704L-213.396 -148.578V-150.607Z" fill="url(#paint81_linear_1019_1323)"/>
<path d="M-213.396 -182.942L500.516 191.849L499.545 193.37L-213.396 -180.913V-182.942Z" fill="url(#paint82_linear_1019_1323)"/>
<path d="M-213.396 -215.276L500.516 159.515L499.545 161.035L-213.396 -213.247V-215.276Z" fill="url(#paint83_linear_1019_1323)"/>
<path d="M-213.396 -247.611L500.516 127.18L499.552 128.701L-213.396 -245.582V-247.611Z" fill="url(#paint84_linear_1019_1323)"/>
<path d="M-213.396 -279.945L500.516 94.8456L499.552 96.3719L-213.396 -277.916V-279.945Z" fill="url(#paint85_linear_1019_1323)"/>
<path d="M-213.396 -312.28L500.516 62.5111L499.552 64.0374L-213.396 -310.25V-312.28Z" fill="url(#paint86_linear_1019_1323)"/>
<path d="M-213.396 -344.614L500.523 30.1766L499.552 31.703L-213.396 -342.585V-344.614Z" fill="url(#paint87_linear_1019_1323)"/>
<path d="M9.69939 -323.981H7.76367V485.994H9.69939V-323.981Z" fill="url(#paint88_linear_1019_1323)"/>
<path d="M36.9924 -309.654H35.0566V485.994H36.9924V-309.654Z" fill="url(#paint89_linear_1019_1323)"/>
<path d="M64.2853 -295.326H62.3496V485.994H64.2853V-295.326Z" fill="url(#paint90_linear_1019_1323)"/>
<path d="M91.5841 -280.998H89.6484V485.994H91.5841V-280.998Z" fill="url(#paint91_linear_1019_1323)"/>
<path d="M118.877 -266.67H116.941V485.994H118.877V-266.67Z" fill="url(#paint92_linear_1019_1323)"/>
<path d="M146.17 -252.342H144.234V485.994H146.17V-252.342Z" fill="url(#paint93_linear_1019_1323)"/>
<path d="M173.463 -238.008H171.527V485.994H173.463V-238.008Z" fill="url(#paint94_linear_1019_1323)"/>
<path d="M200.764 -223.68H198.828V485.994H200.764V-223.68Z" fill="url(#paint95_linear_1019_1323)"/>
<path d="M228.057 -209.352H226.121V485.994H228.057V-209.352Z" fill="url(#paint96_linear_1019_1323)"/>
<path d="M255.35 -195.024H253.414V485.994H255.35V-195.024Z" fill="url(#paint97_linear_1019_1323)"/>
<path d="M282.643 -180.696H280.707V485.994H282.643V-180.696Z" fill="url(#paint98_linear_1019_1323)"/>
<path d="M309.936 -166.368H308V485.994H309.936V-166.368Z" fill="url(#paint99_linear_1019_1323)"/>
<path d="M337.235 -152.034H335.299V485.994H337.235V-152.034Z" fill="url(#paint100_linear_1019_1323)"/>
<path d="M364.527 -137.707H362.592V485.994H364.527V-137.707Z" fill="url(#paint101_linear_1019_1323)"/>
<path d="M391.82 -123.378H389.885V485.994H391.82V-123.378Z" fill="url(#paint102_linear_1019_1323)"/>
<path d="M419.113 -109.05H417.178V485.994H419.113V-109.05Z" fill="url(#paint103_linear_1019_1323)"/>
<path d="M446.406 -94.7227H444.471V485.994H446.406V-94.7227Z" fill="url(#paint104_linear_1019_1323)"/>
<path d="M473.705 -80.3945H471.77V485.994H473.705V-80.3945Z" fill="url(#paint105_linear_1019_1323)"/>
</g>
</g>
<defs>
<linearGradient id="paint0_linear_1019_1323" x1="2158.39" y1="882.978" x2="134.837" y2="-1342.23" gradientUnits="userSpaceOnUse">
<stop offset="0.19" stop-color="white"/>
<stop offset="0.68" stop-color="#858585"/>
<stop offset="1" stop-color="white"/>
</linearGradient>
<linearGradient id="paint1_linear_1019_1323" x1="2117.83" y1="919.869" x2="94.2704" y2="-1305.34" gradientUnits="userSpaceOnUse">
<stop offset="0.19" stop-color="white"/>
<stop offset="0.68" stop-color="#858585"/>
<stop offset="1" stop-color="white"/>
</linearGradient>
<linearGradient id="paint2_linear_1019_1323" x1="2111.32" y1="925.787" x2="87.762" y2="-1299.43" gradientUnits="userSpaceOnUse">
<stop offset="0.19" stop-color="white"/>
<stop offset="0.68" stop-color="#858585"/>
<stop offset="1" stop-color="white"/>
</linearGradient>
<linearGradient id="paint3_linear_1019_1323" x1="2104.81" y1="931.706" x2="81.2549" y2="-1293.5" gradientUnits="userSpaceOnUse">
<stop offset="0.19" stop-color="white"/>
<stop offset="0.68" stop-color="#858585"/>
<stop offset="1" stop-color="white"/>
</linearGradient>
<linearGradient id="paint4_linear_1019_1323" x1="2098.3" y1="937.624" x2="74.7403" y2="-1287.59" gradientUnits="userSpaceOnUse">
<stop offset="0.19" stop-color="white"/>
<stop offset="0.68" stop-color="#858585"/>
<stop offset="1" stop-color="white"/>
</linearGradient>
<linearGradient id="paint5_linear_1019_1323" x1="2091.79" y1="943.547" x2="68.232" y2="-1281.67" gradientUnits="userSpaceOnUse">
<stop offset="0.19" stop-color="white"/>
<stop offset="0.68" stop-color="#858585"/>
<stop offset="1" stop-color="white"/>
</linearGradient>
<linearGradient id="paint6_linear_1019_1323" x1="2085.28" y1="949.467" x2="61.7291" y2="-1275.74" gradientUnits="userSpaceOnUse">
<stop offset="0.19" stop-color="white"/>
<stop offset="0.68" stop-color="#858585"/>
<stop offset="1" stop-color="white"/>
</linearGradient>
<linearGradient id="paint7_linear_1019_1323" x1="2078.77" y1="955.385" x2="55.2161" y2="-1269.82" gradientUnits="userSpaceOnUse">
<stop offset="0.19" stop-color="white"/>
<stop offset="0.68" stop-color="#858585"/>
<stop offset="1" stop-color="white"/>
</linearGradient>
<linearGradient id="paint8_linear_1019_1323" x1="2072.26" y1="961.303" x2="48.7128" y2="-1263.91" gradientUnits="userSpaceOnUse">
<stop offset="0.19" stop-color="white"/>
<stop offset="0.68" stop-color="#858585"/>
<stop offset="1" stop-color="white"/>
</linearGradient>
<linearGradient id="paint9_linear_1019_1323" x1="2065.75" y1="967.221" x2="42.1937" y2="-1257.99" gradientUnits="userSpaceOnUse">
<stop offset="0.19" stop-color="white"/>
<stop offset="0.68" stop-color="#858585"/>
<stop offset="1" stop-color="white"/>
</linearGradient>
<linearGradient id="paint10_linear_1019_1323" x1="2059.25" y1="973.145" x2="35.6919" y2="-1252.07" gradientUnits="userSpaceOnUse">
<stop offset="0.19" stop-color="white"/>
<stop offset="0.68" stop-color="#858585"/>
<stop offset="1" stop-color="white"/>
</linearGradient>
<linearGradient id="paint11_linear_1019_1323" x1="2052.74" y1="979.064" x2="29.1827" y2="-1246.15" gradientUnits="userSpaceOnUse">
<stop offset="0.19" stop-color="white"/>
<stop offset="0.68" stop-color="#858585"/>
<stop offset="1" stop-color="white"/>
</linearGradient>
<linearGradient id="paint12_linear_1019_1323" x1="2046.23" y1="984.982" x2="22.6681" y2="-1240.23" gradientUnits="userSpaceOnUse">
<stop offset="0.19" stop-color="white"/>
<stop offset="0.68" stop-color="#858585"/>
<stop offset="1" stop-color="white"/>
</linearGradient>
<linearGradient id="paint13_linear_1019_1323" x1="2039.72" y1="990.9" x2="16.1736" y2="-1234.3" gradientUnits="userSpaceOnUse">
<stop offset="0.19" stop-color="white"/>
<stop offset="0.68" stop-color="#858585"/>
<stop offset="1" stop-color="white"/>
</linearGradient>
<linearGradient id="paint14_linear_1019_1323" x1="2033.21" y1="996.819" x2="9.65249" y2="-1228.39" gradientUnits="userSpaceOnUse">
<stop offset="0.19" stop-color="white"/>
<stop offset="0.68" stop-color="#858585"/>
<stop offset="1" stop-color="white"/>
</linearGradient>
<linearGradient id="paint15_linear_1019_1323" x1="2026.7" y1="1002.74" x2="3.14268" y2="-1222.47" gradientUnits="userSpaceOnUse">
<stop offset="0.19" stop-color="white"/>
<stop offset="0.68" stop-color="#858585"/>
<stop offset="1" stop-color="white"/>
</linearGradient>
<linearGradient id="paint16_linear_1019_1323" x1="2022.34" y1="1006.67" x2="-1.2131" y2="-1218.55" gradientUnits="userSpaceOnUse">
<stop offset="0.19" stop-color="white"/>
<stop offset="0.68" stop-color="#858585"/>
<stop offset="1" stop-color="white"/>
</linearGradient>
<linearGradient id="paint17_linear_1019_1323" x1="2040.12" y1="990.5" x2="16.5561" y2="-1234.72" gradientUnits="userSpaceOnUse">
<stop offset="0.19" stop-color="white"/>
<stop offset="0.68" stop-color="#858585"/>
<stop offset="1" stop-color="white"/>
</linearGradient>
<linearGradient id="paint18_linear_1019_1323" x1="2057.9" y1="974.339" x2="34.3449" y2="-1250.87" gradientUnits="userSpaceOnUse">
<stop offset="0.19" stop-color="white"/>
<stop offset="0.68" stop-color="#858585"/>
<stop offset="1" stop-color="white"/>
</linearGradient>
<linearGradient id="paint19_linear_1019_1323" x1="2075.67" y1="958.165" x2="52.1181" y2="-1267.04" gradientUnits="userSpaceOnUse">
<stop offset="0.19" stop-color="white"/>
<stop offset="0.68" stop-color="#858585"/>
<stop offset="1" stop-color="white"/>
</linearGradient>
<linearGradient id="paint20_linear_1019_1323" x1="2093.45" y1="942.004" x2="69.8907" y2="-1283.21" gradientUnits="userSpaceOnUse">
<stop offset="0.19" stop-color="white"/>
<stop offset="0.68" stop-color="#858585"/>
<stop offset="1" stop-color="white"/>
</linearGradient>
<linearGradient id="paint21_linear_1019_1323" x1="2111.23" y1="925.835" x2="87.6766" y2="-1299.38" gradientUnits="userSpaceOnUse">
<stop offset="0.19" stop-color="white"/>
<stop offset="0.68" stop-color="#858585"/>
<stop offset="1" stop-color="white"/>
</linearGradient>
<linearGradient id="paint22_linear_1019_1323" x1="2128.98" y1="909.631" x2="105.521" y2="-1315.52" gradientUnits="userSpaceOnUse">
<stop offset="0.19" stop-color="white"/>
<stop offset="0.68" stop-color="#858585"/>
<stop offset="1" stop-color="white"/>
</linearGradient>
<linearGradient id="paint23_linear_1019_1323" x1="2146.78" y1="893.506" x2="123.223" y2="-1331.71" gradientUnits="userSpaceOnUse">
<stop offset="0.19" stop-color="white"/>
<stop offset="0.68" stop-color="#858585"/>
<stop offset="1" stop-color="white"/>
</linearGradient>
<linearGradient id="paint24_linear_1019_1323" x1="2164.56" y1="877.337" x2="141.007" y2="-1347.87" gradientUnits="userSpaceOnUse">
<stop offset="0.19" stop-color="white"/>
<stop offset="0.68" stop-color="#858585"/>
<stop offset="1" stop-color="white"/>
</linearGradient>
<linearGradient id="paint25_linear_1019_1323" x1="2182.34" y1="861.169" x2="158.786" y2="-1364.04" gradientUnits="userSpaceOnUse">
<stop offset="0.19" stop-color="white"/>
<stop offset="0.68" stop-color="#858585"/>
<stop offset="1" stop-color="white"/>
</linearGradient>
<linearGradient id="paint26_linear_1019_1323" x1="2200.12" y1="845.014" x2="176.559" y2="-1380.2" gradientUnits="userSpaceOnUse">
<stop offset="0.19" stop-color="white"/>
<stop offset="0.68" stop-color="#858585"/>
<stop offset="1" stop-color="white"/>
</linearGradient>
<linearGradient id="paint27_linear_1019_1323" x1="2217.89" y1="828.85" x2="194.333" y2="-1396.37" gradientUnits="userSpaceOnUse">
<stop offset="0.19" stop-color="white"/>
<stop offset="0.68" stop-color="#858585"/>
<stop offset="1" stop-color="white"/>
</linearGradient>
<linearGradient id="paint28_linear_1019_1323" x1="2235.67" y1="812.671" x2="212.112" y2="-1412.54" gradientUnits="userSpaceOnUse">
<stop offset="0.19" stop-color="white"/>
<stop offset="0.68" stop-color="#858585"/>
<stop offset="1" stop-color="white"/>
</linearGradient>
<linearGradient id="paint29_linear_1019_1323" x1="2253.46" y1="796.514" x2="229.897" y2="-1428.7" gradientUnits="userSpaceOnUse">
<stop offset="0.19" stop-color="white"/>
<stop offset="0.68" stop-color="#858585"/>
<stop offset="1" stop-color="white"/>
</linearGradient>
<linearGradient id="paint30_linear_1019_1323" x1="2271.22" y1="780.342" x2="247.664" y2="-1444.87" gradientUnits="userSpaceOnUse">
<stop offset="0.19" stop-color="white"/>
<stop offset="0.68" stop-color="#858585"/>
<stop offset="1" stop-color="white"/>
</linearGradient>
<linearGradient id="paint31_linear_1019_1323" x1="1716.86" y1="1284.51" x2="-306.701" y2="-940.709" gradientUnits="userSpaceOnUse">
<stop offset="0.19" stop-color="white"/>
<stop offset="0.68" stop-color="#858585"/>
<stop offset="1" stop-color="white"/>
</linearGradient>
<linearGradient id="paint32_linear_1019_1323" x1="1734.44" y1="1268.51" x2="-289.112" y2="-956.704" gradientUnits="userSpaceOnUse">
<stop offset="0.19" stop-color="white"/>
<stop offset="0.68" stop-color="#858585"/>
<stop offset="1" stop-color="white"/>
</linearGradient>
<linearGradient id="paint33_linear_1019_1323" x1="1752.03" y1="1252.52" x2="-271.53" y2="-972.693" gradientUnits="userSpaceOnUse">
<stop offset="0.19" stop-color="white"/>
<stop offset="0.68" stop-color="#858585"/>
<stop offset="1" stop-color="white"/>
</linearGradient>
<linearGradient id="paint34_linear_1019_1323" x1="1769.61" y1="1236.53" x2="-253.941" y2="-988.693" gradientUnits="userSpaceOnUse">
<stop offset="0.19" stop-color="white"/>
<stop offset="0.68" stop-color="#858585"/>
<stop offset="1" stop-color="white"/>
</linearGradient>
<linearGradient id="paint35_linear_1019_1323" x1="1787.2" y1="1220.54" x2="-236.352" y2="-1004.68" gradientUnits="userSpaceOnUse">
<stop offset="0.19" stop-color="white"/>
<stop offset="0.68" stop-color="#858585"/>
<stop offset="1" stop-color="white"/>
</linearGradient>
<linearGradient id="paint36_linear_1019_1323" x1="1804.79" y1="1204.55" x2="-218.771" y2="-1020.68" gradientUnits="userSpaceOnUse">
<stop offset="0.19" stop-color="white"/>
<stop offset="0.68" stop-color="#858585"/>
<stop offset="1" stop-color="white"/>
</linearGradient>
<linearGradient id="paint37_linear_1019_1323" x1="1822.38" y1="1188.55" x2="-201.182" y2="-1036.67" gradientUnits="userSpaceOnUse">
<stop offset="0.19" stop-color="white"/>
<stop offset="0.68" stop-color="#858585"/>
<stop offset="1" stop-color="white"/>
</linearGradient>
<linearGradient id="paint38_linear_1019_1323" x1="1839.91" y1="1172.56" x2="-183.647" y2="-1052.58" gradientUnits="userSpaceOnUse">
<stop offset="0.19" stop-color="white"/>
<stop offset="0.68" stop-color="#858585"/>
<stop offset="1" stop-color="white"/>
</linearGradient>
<linearGradient id="paint39_linear_1019_1323" x1="1857.55" y1="1156.57" x2="-166.012" y2="-1068.65" gradientUnits="userSpaceOnUse">
<stop offset="0.19" stop-color="white"/>
<stop offset="0.68" stop-color="#858585"/>
<stop offset="1" stop-color="white"/>
</linearGradient>
<linearGradient id="paint40_linear_1019_1323" x1="1875.13" y1="1140.57" x2="-148.424" y2="-1084.64" gradientUnits="userSpaceOnUse">
<stop offset="0.19" stop-color="white"/>
<stop offset="0.68" stop-color="#858585"/>
<stop offset="1" stop-color="white"/>
</linearGradient>
<linearGradient id="paint41_linear_1019_1323" x1="1892.72" y1="1124.58" x2="-130.834" y2="-1100.64" gradientUnits="userSpaceOnUse">
<stop offset="0.19" stop-color="white"/>
<stop offset="0.68" stop-color="#858585"/>
<stop offset="1" stop-color="white"/>
</linearGradient>
<linearGradient id="paint42_linear_1019_1323" x1="1910.3" y1="1108.59" x2="-113.252" y2="-1116.63" gradientUnits="userSpaceOnUse">
<stop offset="0.19" stop-color="white"/>
<stop offset="0.68" stop-color="#858585"/>
<stop offset="1" stop-color="white"/>
</linearGradient>
<linearGradient id="paint43_linear_1019_1323" x1="1927.89" y1="1092.6" x2="-95.6634" y2="-1132.62" gradientUnits="userSpaceOnUse">
<stop offset="0.19" stop-color="white"/>
<stop offset="0.68" stop-color="#858585"/>
<stop offset="1" stop-color="white"/>
</linearGradient>
<linearGradient id="paint44_linear_1019_1323" x1="1945.48" y1="1076.61" x2="-78.0819" y2="-1148.62" gradientUnits="userSpaceOnUse">
<stop offset="0.19" stop-color="white"/>
<stop offset="0.68" stop-color="#858585"/>
<stop offset="1" stop-color="white"/>
</linearGradient>
<linearGradient id="paint45_linear_1019_1323" x1="1963.07" y1="1060.61" x2="-60.4936" y2="-1164.61" gradientUnits="userSpaceOnUse">
<stop offset="0.19" stop-color="white"/>
<stop offset="0.68" stop-color="#858585"/>
<stop offset="1" stop-color="white"/>
</linearGradient>
<linearGradient id="paint46_linear_1019_1323" x1="1980.65" y1="1044.62" x2="-42.9052" y2="-1180.6" gradientUnits="userSpaceOnUse">
<stop offset="0.19" stop-color="white"/>
<stop offset="0.68" stop-color="#858585"/>
<stop offset="1" stop-color="white"/>
</linearGradient>
<linearGradient id="paint47_linear_1019_1323" x1="1998.24" y1="1028.62" x2="-25.3231" y2="-1196.6" gradientUnits="userSpaceOnUse">
<stop offset="0.19" stop-color="white"/>
<stop offset="0.68" stop-color="#858585"/>
<stop offset="1" stop-color="white"/>
</linearGradient>
<linearGradient id="paint48_linear_1019_1323" x1="2015.82" y1="1012.63" x2="-7.73484" y2="-1212.58" gradientUnits="userSpaceOnUse">
<stop offset="0.19" stop-color="white"/>
<stop offset="0.68" stop-color="#858585"/>
<stop offset="1" stop-color="white"/>
</linearGradient>
<linearGradient id="paint49_linear_1019_1323" x1="2033.41" y1="996.643" x2="9.85449" y2="-1228.58" gradientUnits="userSpaceOnUse">
<stop offset="0.19" stop-color="white"/>
<stop offset="0.68" stop-color="#858585"/>
<stop offset="1" stop-color="white"/>
</linearGradient>
<linearGradient id="paint50_linear_1019_1323" x1="2051" y1="980.649" x2="27.4365" y2="-1244.57" gradientUnits="userSpaceOnUse">
<stop offset="0.19" stop-color="white"/>
<stop offset="0.68" stop-color="#858585"/>
<stop offset="1" stop-color="white"/>
</linearGradient>
<linearGradient id="paint51_linear_1019_1323" x1="2068.54" y1="964.654" x2="44.9766" y2="-1260.48" gradientUnits="userSpaceOnUse">
<stop offset="0.19" stop-color="white"/>
<stop offset="0.68" stop-color="#858585"/>
<stop offset="1" stop-color="white"/>
</linearGradient>
<linearGradient id="paint52_linear_1019_1323" x1="2086.17" y1="948.659" x2="62.6069" y2="-1276.56" gradientUnits="userSpaceOnUse">
<stop offset="0.19" stop-color="white"/>
<stop offset="0.68" stop-color="#858585"/>
<stop offset="1" stop-color="white"/>
</linearGradient>
<linearGradient id="paint53_linear_1019_1323" x1="2103.75" y1="932.665" x2="80.1966" y2="-1292.55" gradientUnits="userSpaceOnUse">
<stop offset="0.19" stop-color="white"/>
<stop offset="0.68" stop-color="#858585"/>
<stop offset="1" stop-color="white"/>
</linearGradient>
<linearGradient id="paint54_linear_1019_1323" x1="2121.34" y1="916.676" x2="97.7861" y2="-1308.55" gradientUnits="userSpaceOnUse">
<stop offset="0.19" stop-color="white"/>
<stop offset="0.68" stop-color="#858585"/>
<stop offset="1" stop-color="white"/>
</linearGradient>
<linearGradient id="paint55_linear_1019_1323" x1="2138.93" y1="900.687" x2="115.368" y2="-1324.54" gradientUnits="userSpaceOnUse">
<stop offset="0.19" stop-color="white"/>
<stop offset="0.68" stop-color="#858585"/>
<stop offset="1" stop-color="white"/>
</linearGradient>
<linearGradient id="paint56_linear_1019_1323" x1="2156.52" y1="884.692" x2="132.956" y2="-1340.52" gradientUnits="userSpaceOnUse">
<stop offset="0.19" stop-color="white"/>
<stop offset="0.68" stop-color="#858585"/>
<stop offset="1" stop-color="white"/>
</linearGradient>
<linearGradient id="paint57_linear_1019_1323" x1="2174.1" y1="868.697" x2="150.545" y2="-1356.52" gradientUnits="userSpaceOnUse">
<stop offset="0.19" stop-color="white"/>
<stop offset="0.68" stop-color="#858585"/>
<stop offset="1" stop-color="white"/>
</linearGradient>
<linearGradient id="paint58_linear_1019_1323" x1="2191.69" y1="852.702" x2="168.127" y2="-1372.52" gradientUnits="userSpaceOnUse">
<stop offset="0.19" stop-color="white"/>
<stop offset="0.68" stop-color="#858585"/>
<stop offset="1" stop-color="white"/>
</linearGradient>
<linearGradient id="paint59_linear_1019_1323" x1="2209.27" y1="836.714" x2="185.716" y2="-1388.51" gradientUnits="userSpaceOnUse">
<stop offset="0.19" stop-color="white"/>
<stop offset="0.68" stop-color="#858585"/>
<stop offset="1" stop-color="white"/>
</linearGradient>
<linearGradient id="paint60_linear_1019_1323" x1="2226.86" y1="820.719" x2="203.304" y2="-1404.5" gradientUnits="userSpaceOnUse">
<stop offset="0.19" stop-color="white"/>
<stop offset="0.68" stop-color="#858585"/>
<stop offset="1" stop-color="white"/>
</linearGradient>
<linearGradient id="paint61_linear_1019_1323" x1="2244.45" y1="804.724" x2="220.886" y2="-1420.49" gradientUnits="userSpaceOnUse">
<stop offset="0.19" stop-color="white"/>
<stop offset="0.68" stop-color="#858585"/>
<stop offset="1" stop-color="white"/>
</linearGradient>
<linearGradient id="paint62_linear_1019_1323" x1="2262.03" y1="788.736" x2="238.474" y2="-1436.49" gradientUnits="userSpaceOnUse">
<stop offset="0.19" stop-color="white"/>
<stop offset="0.68" stop-color="#858585"/>
<stop offset="1" stop-color="white"/>
</linearGradient>
<linearGradient id="paint63_linear_1019_1323" x1="2279.62" y1="772.741" x2="256.063" y2="-1452.48" gradientUnits="userSpaceOnUse">
<stop offset="0.19" stop-color="white"/>
<stop offset="0.68" stop-color="#858585"/>
<stop offset="1" stop-color="white"/>
</linearGradient>
<linearGradient id="paint64_linear_1019_1323" x1="2297.2" y1="756.752" x2="273.651" y2="-1468.46" gradientUnits="userSpaceOnUse">
<stop offset="0.19" stop-color="white"/>
<stop offset="0.68" stop-color="#858585"/>
<stop offset="1" stop-color="white"/>
</linearGradient>
<linearGradient id="paint65_linear_1019_1323" x1="-196.47" y1="347.522" x2="797.858" y2="-802.101" gradientUnits="userSpaceOnUse">
<stop offset="0.19" stop-color="white"/>
<stop offset="0.68" stop-color="#858585"/>
<stop offset="1" stop-color="white"/>
</linearGradient>
<linearGradient id="paint66_linear_1019_1323" x1="-95.1377" y1="435.161" x2="899.185" y2="-714.449" gradientUnits="userSpaceOnUse">
<stop offset="0.19" stop-color="white"/>
<stop offset="0.68" stop-color="#858585"/>
<stop offset="1" stop-color="white"/>
</linearGradient>
<linearGradient id="paint67_linear_1019_1323" x1="-87.845" y1="441.472" x2="906.477" y2="-708.144" gradientUnits="userSpaceOnUse">
<stop offset="0.19" stop-color="white"/>
<stop offset="0.68" stop-color="#858585"/>
<stop offset="1" stop-color="white"/>
</linearGradient>
<linearGradient id="paint68_linear_1019_1323" x1="-80.5523" y1="447.777" x2="913.77" y2="-701.84" gradientUnits="userSpaceOnUse">
<stop offset="0.19" stop-color="white"/>
<stop offset="0.68" stop-color="#858585"/>
<stop offset="1" stop-color="white"/>
</linearGradient>
<linearGradient id="paint69_linear_1019_1323" x1="-73.2596" y1="454.081" x2="921.057" y2="-695.529" gradientUnits="userSpaceOnUse">
<stop offset="0.19" stop-color="white"/>
<stop offset="0.68" stop-color="#858585"/>
<stop offset="1" stop-color="white"/>
</linearGradient>
<linearGradient id="paint70_linear_1019_1323" x1="-65.9669" y1="460.391" x2="928.349" y2="-689.219" gradientUnits="userSpaceOnUse">
<stop offset="0.19" stop-color="white"/>
<stop offset="0.68" stop-color="#858585"/>
<stop offset="1" stop-color="white"/>
</linearGradient>
<linearGradient id="paint71_linear_1019_1323" x1="-58.6806" y1="466.695" x2="935.641" y2="-682.921" gradientUnits="userSpaceOnUse">
<stop offset="0.19" stop-color="white"/>
<stop offset="0.68" stop-color="#858585"/>
<stop offset="1" stop-color="white"/>
</linearGradient>
<linearGradient id="paint72_linear_1019_1323" x1="-51.3879" y1="473" x2="942.935" y2="-676.611" gradientUnits="userSpaceOnUse">
<stop offset="0.19" stop-color="white"/>
<stop offset="0.68" stop-color="#858585"/>
<stop offset="1" stop-color="white"/>
</linearGradient>
<linearGradient id="paint73_linear_1019_1323" x1="-46.3654" y1="477.345" x2="947.957" y2="-672.265" gradientUnits="userSpaceOnUse">
<stop offset="0.19" stop-color="white"/>
<stop offset="0.68" stop-color="#858585"/>
<stop offset="1" stop-color="white"/>
</linearGradient>
<linearGradient id="paint74_linear_1019_1323" x1="-64.1212" y1="461.988" x2="930.201" y2="-687.623" gradientUnits="userSpaceOnUse">
<stop offset="0.19" stop-color="white"/>
<stop offset="0.68" stop-color="#858585"/>
<stop offset="1" stop-color="white"/>
</linearGradient>
<linearGradient id="paint75_linear_1019_1323" x1="-81.8771" y1="446.63" x2="912.446" y2="-702.98" gradientUnits="userSpaceOnUse">
<stop offset="0.19" stop-color="white"/>
<stop offset="0.68" stop-color="#858585"/>
<stop offset="1" stop-color="white"/>
</linearGradient>
<linearGradient id="paint76_linear_1019_1323" x1="-99.633" y1="431.273" x2="894.69" y2="-718.337" gradientUnits="userSpaceOnUse">
<stop offset="0.19" stop-color="white"/>
<stop offset="0.68" stop-color="#858585"/>
<stop offset="1" stop-color="white"/>
</linearGradient>
<linearGradient id="paint77_linear_1019_1323" x1="-117.389" y1="415.916" x2="876.934" y2="-733.694" gradientUnits="userSpaceOnUse">
<stop offset="0.19" stop-color="white"/>
<stop offset="0.68" stop-color="#858585"/>
<stop offset="1" stop-color="white"/>
</linearGradient>
<linearGradient id="paint78_linear_1019_1323" x1="-135.145" y1="400.559" x2="859.178" y2="-749.052" gradientUnits="userSpaceOnUse">
<stop offset="0.19" stop-color="white"/>
<stop offset="0.68" stop-color="#858585"/>
<stop offset="1" stop-color="white"/>
</linearGradient>
<linearGradient id="paint79_linear_1019_1323" x1="-152.901" y1="385.201" x2="841.422" y2="-764.409" gradientUnits="userSpaceOnUse">
<stop offset="0.19" stop-color="white"/>
<stop offset="0.68" stop-color="#858585"/>
<stop offset="1" stop-color="white"/>
</linearGradient>
<linearGradient id="paint80_linear_1019_1323" x1="-170.65" y1="369.844" x2="823.666" y2="-779.766" gradientUnits="userSpaceOnUse">
<stop offset="0.19" stop-color="white"/>
<stop offset="0.68" stop-color="#858585"/>
<stop offset="1" stop-color="white"/>
</linearGradient>
<linearGradient id="paint81_linear_1019_1323" x1="-188.406" y1="354.486" x2="805.91" y2="-795.129" gradientUnits="userSpaceOnUse">
<stop offset="0.19" stop-color="white"/>
<stop offset="0.68" stop-color="#858585"/>
<stop offset="1" stop-color="white"/>
</linearGradient>
<linearGradient id="paint82_linear_1019_1323" x1="-206.168" y1="339.129" x2="788.155" y2="-810.481" gradientUnits="userSpaceOnUse">
<stop offset="0.19" stop-color="white"/>
<stop offset="0.68" stop-color="#858585"/>
<stop offset="1" stop-color="white"/>
</linearGradient>
<linearGradient id="paint83_linear_1019_1323" x1="-223.918" y1="323.772" x2="770.399" y2="-825.838" gradientUnits="userSpaceOnUse">
<stop offset="0.19" stop-color="white"/>
<stop offset="0.68" stop-color="#858585"/>
<stop offset="1" stop-color="white"/>
</linearGradient>
<linearGradient id="paint84_linear_1019_1323" x1="-241.673" y1="308.414" x2="752.643" y2="-841.195" gradientUnits="userSpaceOnUse">
<stop offset="0.19" stop-color="white"/>
<stop offset="0.68" stop-color="#858585"/>
<stop offset="1" stop-color="white"/>
</linearGradient>
<linearGradient id="paint85_linear_1019_1323" x1="-259.429" y1="293.057" x2="734.887" y2="-856.552" gradientUnits="userSpaceOnUse">
<stop offset="0.19" stop-color="white"/>
<stop offset="0.68" stop-color="#858585"/>
<stop offset="1" stop-color="white"/>
</linearGradient>
<linearGradient id="paint86_linear_1019_1323" x1="-277.185" y1="277.7" x2="717.131" y2="-871.91" gradientUnits="userSpaceOnUse">
<stop offset="0.19" stop-color="white"/>
<stop offset="0.68" stop-color="#858585"/>
<stop offset="1" stop-color="white"/>
</linearGradient>
<linearGradient id="paint87_linear_1019_1323" x1="-294.941" y1="262.343" x2="699.375" y2="-887.267" gradientUnits="userSpaceOnUse">
<stop offset="0.19" stop-color="white"/>
<stop offset="0.68" stop-color="#858585"/>
<stop offset="1" stop-color="white"/>
</linearGradient>
<linearGradient id="paint88_linear_1019_1323" x1="-235.083" y1="314.123" x2="759.239" y2="-835.497" gradientUnits="userSpaceOnUse">
<stop offset="0.19" stop-color="white"/>
<stop offset="0.68" stop-color="#858585"/>
<stop offset="1" stop-color="white"/>
</linearGradient>
<linearGradient id="paint89_linear_1019_1323" x1="-216.819" y1="329.918" x2="777.509" y2="-819.702" gradientUnits="userSpaceOnUse">
<stop offset="0.19" stop-color="white"/>
<stop offset="0.68" stop-color="#858585"/>
<stop offset="1" stop-color="white"/>
</linearGradient>
<linearGradient id="paint90_linear_1019_1323" x1="-198.555" y1="345.714" x2="795.767" y2="-803.905" gradientUnits="userSpaceOnUse">
<stop offset="0.19" stop-color="white"/>
<stop offset="0.68" stop-color="#858585"/>
<stop offset="1" stop-color="white"/>
</linearGradient>
<linearGradient id="paint91_linear_1019_1323" x1="-180.289" y1="361.516" x2="814.04" y2="-788.1" gradientUnits="userSpaceOnUse">
<stop offset="0.19" stop-color="white"/>
<stop offset="0.68" stop-color="#858585"/>
<stop offset="1" stop-color="white"/>
</linearGradient>
<linearGradient id="paint92_linear_1019_1323" x1="-162.028" y1="377.312" x2="832.3" y2="-772.314" gradientUnits="userSpaceOnUse">
<stop offset="0.19" stop-color="white"/>
<stop offset="0.68" stop-color="#858585"/>
<stop offset="1" stop-color="white"/>
</linearGradient>
<linearGradient id="paint93_linear_1019_1323" x1="-143.757" y1="393.108" x2="850.564" y2="-756.512" gradientUnits="userSpaceOnUse">
<stop offset="0.19" stop-color="white"/>
<stop offset="0.68" stop-color="#858585"/>
<stop offset="1" stop-color="white"/>
</linearGradient>
<linearGradient id="paint94_linear_1019_1323" x1="-125.494" y1="408.91" x2="868.827" y2="-740.716" gradientUnits="userSpaceOnUse">
<stop offset="0.19" stop-color="white"/>
<stop offset="0.68" stop-color="#858585"/>
<stop offset="1" stop-color="white"/>
</linearGradient>
<linearGradient id="paint95_linear_1019_1323" x1="-107.228" y1="424.706" x2="887.093" y2="-724.914" gradientUnits="userSpaceOnUse">
<stop offset="0.19" stop-color="white"/>
<stop offset="0.68" stop-color="#858585"/>
<stop offset="1" stop-color="white"/>
</linearGradient>
<linearGradient id="paint96_linear_1019_1323" x1="-88.9644" y1="440.502" x2="905.363" y2="-709.118" gradientUnits="userSpaceOnUse">
<stop offset="0.19" stop-color="white"/>
<stop offset="0.68" stop-color="#858585"/>
<stop offset="1" stop-color="white"/>
</linearGradient>
<linearGradient id="paint97_linear_1019_1323" x1="-70.7005" y1="456.303" x2="923.621" y2="-693.316" gradientUnits="userSpaceOnUse">
<stop offset="0.19" stop-color="white"/>
<stop offset="0.68" stop-color="#858585"/>
<stop offset="1" stop-color="white"/>
</linearGradient>
<linearGradient id="paint98_linear_1019_1323" x1="-52.4366" y1="472.099" x2="941.891" y2="-677.521" gradientUnits="userSpaceOnUse">
<stop offset="0.19" stop-color="white"/>
<stop offset="0.68" stop-color="#858585"/>
<stop offset="1" stop-color="white"/>
</linearGradient>
<linearGradient id="paint99_linear_1019_1323" x1="-34.1663" y1="487.894" x2="960.155" y2="-661.725" gradientUnits="userSpaceOnUse">
<stop offset="0.19" stop-color="white"/>
<stop offset="0.68" stop-color="#858585"/>
<stop offset="1" stop-color="white"/>
</linearGradient>
<linearGradient id="paint100_linear_1019_1323" x1="-15.8959" y1="503.696" x2="978.428" y2="-645.909" gradientUnits="userSpaceOnUse">
<stop offset="0.19" stop-color="white"/>
<stop offset="0.68" stop-color="#858585"/>
<stop offset="1" stop-color="white"/>
</linearGradient>
<linearGradient id="paint101_linear_1019_1323" x1="2.36816" y1="519.492" x2="996.692" y2="-630.108" gradientUnits="userSpaceOnUse">
<stop offset="0.19" stop-color="white"/>
<stop offset="0.68" stop-color="#858585"/>
<stop offset="1" stop-color="white"/>
</linearGradient>
<linearGradient id="paint102_linear_1019_1323" x1="20.6323" y1="535.288" x2="1014.96" y2="-614.312" gradientUnits="userSpaceOnUse">
<stop offset="0.19" stop-color="white"/>
<stop offset="0.68" stop-color="#858585"/>
<stop offset="1" stop-color="white"/>
</linearGradient>
<linearGradient id="paint103_linear_1019_1323" x1="38.8963" y1="551.084" x2="1033.23" y2="-598.516" gradientUnits="userSpaceOnUse">
<stop offset="0.19" stop-color="white"/>
<stop offset="0.68" stop-color="#858585"/>
<stop offset="1" stop-color="white"/>
</linearGradient>
<linearGradient id="paint104_linear_1019_1323" x1="57.1526" y1="566.885" x2="1051.48" y2="-582.74" gradientUnits="userSpaceOnUse">
<stop offset="0.19" stop-color="white"/>
<stop offset="0.68" stop-color="#858585"/>
<stop offset="1" stop-color="white"/>
</linearGradient>
<linearGradient id="paint105_linear_1019_1323" x1="75.4223" y1="582.681" x2="1069.74" y2="-566.938" gradientUnits="userSpaceOnUse">
<stop offset="0.19" stop-color="white"/>
<stop offset="0.68" stop-color="#858585"/>
<stop offset="1" stop-color="white"/>
</linearGradient>
<clipPath id="clip0_1019_1323">
<rect width="1440" height="356" fill="white"/>
</clipPath>
</defs>
</svg>
